# xmcd
#
# Track frame offsets:
#	150
#	2747
#	66756
#	72041
#	86185
#	124170
#	132732
#	145845
#	160972
#	163868
#	185377
#	189351
#	207159
#	210157
#	240795
#	244851
#	263836
#	269293
#
# Disc length: 3839 seconds
#
# Revision: 1
# Processed by: cddbd v1.4PL0 Copyright (c) Steve Scherf et al.
# Submitted via: audiograbber 1.81.02
#
DISCID=fe0efd12
DTITLE=Youp van 't Hek - Spelen met je leven
DYEAR=1900
DGENRE=Cabaret
TTITLE0=Openingsmuziek
TTITLE1=Buurtzwerver
TTITLE2=Telefoon V
TTITLE3=Vrouw versieren
TTITLE4=Stapelbed
TTITLE5=Barby/Ken
TTITLE6=Zoontje bij Ajax
TTITLE7=Mijn zoontje droomt
TTITLE8=Als je maar gezond bent
TTITLE9=Gordelkapper
TTITLE10=Suzy?
TTITLE11=Parking-homo
TTITLE12=Telefoon VI
TTITLE13=Glassex
TTITLE14=Telefoon VII
TTITLE15=Psychiater
TTITLE16=Telefoon VIII
TTITLE17=Spelen met je leven
EXTD=
EXTT0=
EXTT1=
EXTT2=
EXTT3=
EXTT4=
EXTT5=
EXTT6=
EXTT7=
EXTT8=
EXTT9=
EXTT10=
EXTT11=
EXTT12=
EXTT13=
EXTT14=
EXTT15=
EXTT16=
EXTT17=
PLAYORDER=
